<svg width="8" height="15" viewBox="0 0 8 15" fill="none" xmlns="http://www.w3.org/2000/svg">
<path d="M7.9973 7.40075C7.99782 7.64696 7.90487 7.88557 7.73458 8.07515L2.02324 14.3977C1.82936 14.6128 1.55074 14.7482 1.2487 14.7739C0.946653 14.7996 0.645916 14.7135 0.412646 14.5346C0.179376 14.3558 0.0326817 14.0988 0.00483349 13.8201C-0.0230147 13.5415 0.0702644 13.264 0.264151 13.0489L5.38151 7.40075L0.446914 1.75265C0.352031 1.64486 0.281174 1.52084 0.238417 1.38771C0.19566 1.25458 0.181846 1.11497 0.197768 0.976895C0.21369 0.838824 0.259034 0.705016 0.331196 0.583164C0.403357 0.461312 0.500913 0.353817 0.618254 0.266859C0.735703 0.170357 0.873491 0.09727 1.02298 0.0521764C1.17248 0.00708383 1.33045 -0.0090409 1.48702 0.00480835C1.64358 0.0186576 1.79535 0.0621842 1.93283 0.132662C2.07031 0.20314 2.19053 0.299052 2.28596 0.414386L7.80311 6.73689C7.94648 6.93192 8.01486 7.16566 7.9973 7.40075Z" fill="#A1A7B0"/>
</svg>
