<svg width="13" height="13" viewBox="0 0 13 13" fill="none" xmlns="http://www.w3.org/2000/svg">
<path d="M8.163 1.08325C9.63091 1.08325 10.8172 1.66284 10.8334 3.13617V11.3587C10.8334 11.4508 10.8117 11.5428 10.7684 11.6241C10.698 11.7541 10.5788 11.8516 10.4326 11.8949C10.2917 11.9383 10.1347 11.9166 10.0047 11.8408L6.49466 10.0858L2.97925 11.8408C2.89854 11.8835 2.80591 11.9112 2.71383 11.9112C2.4105 11.9112 2.16675 11.662 2.16675 11.3587V3.13617C2.16675 1.66284 3.35841 1.08325 4.82091 1.08325H8.163ZM8.53133 4.35492H4.45258C4.21966 4.35492 4.03008 4.5445 4.03008 4.78284C4.03008 5.02063 4.21966 5.21075 4.45258 5.21075H8.53133C8.76425 5.21075 8.95383 5.02063 8.95383 4.78284C8.95383 4.5445 8.76425 4.35492 8.53133 4.35492Z" fill="#F36D72"/>
</svg>
