<svg width="13" height="13" viewBox="0 0 13 13" fill="none" xmlns="http://www.w3.org/2000/svg">
<path d="M8.16294 1.08333C9.63086 1.08333 10.8171 1.66291 10.8334 3.13625V11.3587C10.8334 11.4508 10.8117 11.5429 10.7684 11.6242C10.6979 11.7542 10.5788 11.8517 10.4325 11.895C10.2917 11.9383 10.1346 11.9167 10.0046 11.8408L6.49461 10.0858L2.97919 11.8408C2.89848 11.8836 2.80586 11.9112 2.71377 11.9112C2.41044 11.9112 2.16669 11.6621 2.16669 11.3587V3.13625C2.16669 1.66291 3.35836 1.08333 4.82086 1.08333H8.16294ZM8.53127 4.355H4.45252C4.21961 4.355 4.03002 4.54458 4.03002 4.78291C4.03002 5.0207 4.21961 5.21083 4.45252 5.21083H8.53127C8.76419 5.21083 8.95377 5.0207 8.95377 4.78291C8.95377 4.54458 8.76419 4.355 8.53127 4.355Z" fill="#B0ACAC"/>
</svg>
