<svg width="31" height="31" viewBox="0 0 31 31" fill="none" xmlns="http://www.w3.org/2000/svg">
<path d="M15.5001 27.1249C13.8686 25.7333 12.3564 24.2077 10.9792 22.564C8.91256 20.0956 6.4584 16.4196 6.4584 12.9166C6.4575 11.1276 6.98735 9.37849 7.98088 7.89072C8.97441 6.40295 10.387 5.24336 12.0398 4.5587C13.6926 3.87404 15.5114 3.69508 17.2659 4.04448C19.0205 4.39388 20.632 5.25592 21.8964 6.52152C22.7382 7.35963 23.4055 8.35638 23.8596 9.45409C24.3137 10.5518 24.5455 11.7287 24.5417 12.9166C24.5417 16.4196 22.0876 20.0956 20.0209 22.564C18.6437 24.2077 17.1315 25.7333 15.5001 27.1249ZM15.5001 9.04156C14.4724 9.04156 13.4867 9.44982 12.76 10.1765C12.0333 10.9032 11.6251 11.8888 11.6251 12.9166C11.6251 13.9443 12.0333 14.9299 12.76 15.6566C13.4867 16.3833 14.4724 16.7916 15.5001 16.7916C16.5278 16.7916 17.5134 16.3833 18.2401 15.6566C18.9668 14.9299 19.3751 13.9443 19.3751 12.9166C19.3751 11.8888 18.9668 10.9032 18.2401 10.1765C17.5134 9.44982 16.5278 9.04156 15.5001 9.04156Z" fill="#EE684A"/>
</svg>
