<svg width="25" height="24" viewBox="0 0 25 24" fill="none" xmlns="http://www.w3.org/2000/svg">
<path d="M2.5 9.65356L11.5033 2.45092C12.2548 1.84969 13.3227 1.84969 14.0742 2.45092L23.0775 9.65356" stroke="#7D848D" stroke-width="1.5" stroke-linecap="round" stroke-linejoin="round"/>
<path d="M10.1936 3.53112L6.07805 6.87497C5.33083 7.48209 4.95722 7.78565 4.75748 8.20528C4.55775 8.6249 4.55775 9.10629 4.55775 10.0691V13.769C4.55775 17.6491 4.55775 19.5893 5.76315 20.7946C6.96857 22 8.90862 22 12.7888 22C16.6689 22 18.609 22 19.8143 20.7946C21.0198 19.5893 21.0198 17.6491 21.0198 13.769V10.0691C21.0198 9.10629 21.0198 8.6249 20.8201 8.20528C20.6203 7.78565 20.2467 7.48209 19.4995 6.87497L15.384 3.53112C14.1409 2.52112 13.5194 2.01611 12.7888 2.01611C12.0582 2.01611 11.4366 2.52112 10.1936 3.53112Z" stroke="#7D848D" stroke-width="1.5"/>
<path d="M10.4736 16.084H15.1036" stroke="#7D848D" stroke-width="1.5" stroke-linecap="round"/>
</svg>
