<svg width="12" height="15" viewBox="0 0 12 15" fill="none" xmlns="http://www.w3.org/2000/svg">
<path fill-rule="evenodd" clip-rule="evenodd" d="M7.85382 13.1337C9.39366 11.1701 11.3333 8.3173 11.3333 6.40582C11.3333 3.23618 8.94548 0.666687 5.99996 0.666687C3.05444 0.666687 0.666626 3.23618 0.666626 6.40582C0.666626 8.3173 2.60626 11.1701 4.1461 13.1337C4.94946 14.1581 5.35114 14.6703 5.99996 14.6703C6.64878 14.6703 7.05046 14.1581 7.85382 13.1337ZM5.99996 8.66669C4.89539 8.66669 3.99996 7.77126 3.99996 6.66669C3.99996 5.56212 4.89539 4.66669 5.99996 4.66669C7.10453 4.66669 7.99996 5.56212 7.99996 6.66669C7.99996 7.77126 7.10453 8.66669 5.99996 8.66669Z" fill="#BDBDBD"/>
</svg>
