<svg width="96" height="96" viewBox="0 0 96 96" fill="none" xmlns="http://www.w3.org/2000/svg">
<circle cx="48" cy="48" r="48" fill="#FFDFE6"/>
<mask id="mask0_75_1369" style="mask-type:alpha" maskUnits="userSpaceOnUse" x="0" y="0" width="96" height="96">
<circle cx="47.9999" cy="48" r="48" fill="#FFEADF"/>
</mask>
<g mask="url(#mask0_75_1369)">
<path d="M19.807 70.756L16.7802 95.9996H-1.92862L-1.30843 91.8137C-1.08267 89.0601 -0.393145 86.4162 0.691459 83.9513C2.53009 79.8415 5.5675 76.4967 9.29605 74.2008V74.1943C9.48697 74.0724 9.67919 73.9686 9.87012 73.8521C12.8669 72.1251 16.2584 71.0463 19.807 70.756Z" fill="#186BE7"/>
<path d="M96.8256 95.9996H78.0639L74.8401 69.069C76.9693 69.2434 79.0498 69.7014 81.0152 70.4196C86.692 72.4721 91.4632 76.6354 93.9566 82.2758C95.0412 84.723 95.7249 87.3727 95.9565 90.127L96.8256 95.9996Z" fill="#186BE7"/>
<path d="M84.2607 72.1138L81.062 96H12.1602L9.29626 74.2008V74.1944C9.48719 74.0724 9.67941 73.9686 9.87033 73.8522C14.1933 71.303 24.0073 68.3705 31.018 66.468C35.9644 65.1266 41.0668 64.4616 46.1934 64.4848L51.6445 64.5106C55.4505 64.5277 59.2426 64.9267 62.9701 65.6994C69.0021 66.9482 77.9517 68.9529 81.0136 70.42C82.1863 70.9702 83.2699 71.5394 84.2607 72.1138Z" fill="#0D6EFD"/>
<path d="M63.3841 41.2078C63.3841 41.2078 64.9293 45.4446 58.0205 47.9066L58.501 82.5343L38.007 73.3482L39.8257 53.3316L47.6882 49.9526L49.5629 46.566C49.5629 46.566 52.2846 43.0545 52.6136 42.7087C52.9419 42.3627 55.8538 39.801 55.8538 39.801L62.1118 41.6893L63.3841 41.2078Z" fill="#FAB9C9"/>
<path d="M54.4916 51.4601C55.7771 46.3661 52.4555 46.5554 48.7286 48.077L47.6905 49.9524L40.3949 53.0875L39.6222 55.8031L38.9011 64.4715C38.9007 64.4715 51.865 61.8721 54.4916 51.4601Z" fill="#1B1E28"/>
<path d="M34.1495 38.3844C34.1495 38.3844 28.464 35.8076 30.461 29.9617C32.4576 24.1159 32.5073 24.1162 32.0929 21.3607C31.6778 18.6055 32.7376 11.7463 40.7852 13.6682C48.8335 15.5903 49.9232 15.798 54.0307 14.0826C58.1382 12.3672 63.805 16.1102 62.921 25.2073C62.1702 32.9395 60.5312 30.8009 62.089 34.9419C63.6473 39.0827 62.7308 40.1176 60.0001 40.7704C53.6734 42.2823 50.6005 39.2675 50.6005 39.1252C50.6005 38.983 49.3527 35.8121 48.5729 35.3964C47.793 34.9803 40.6707 33.0053 40.5153 33.213C40.3592 33.4207 38.0084 36.6825 38.0084 36.6825L34.1495 38.3844Z" fill="#1B1E28"/>
<path d="M30.9011 39.2423C33.2119 39.3681 35.5553 39.2549 37.8703 39.2336C38.0512 39.232 38.0518 38.9501 37.8703 38.9518C35.5553 38.9701 33.2103 38.8956 30.9011 39.0608C30.7847 39.0685 30.7837 39.2368 30.9011 39.2423Z" fill="#1B1E28"/>
<path d="M34.1627 30.4045V48.2597C34.1627 48.2597 33.6047 56.7378 39.9692 57.0778C46.3336 57.4177 50.1711 57.1023 52.2365 54.8428C54.3012 52.5836 56.2447 48.5509 54.7863 37.8381C53.3292 27.1246 51.7992 25.3034 51.7992 25.3034L43.8554 22.8981L36.3483 24.2097L34.1627 30.4045Z" fill="#FAB9C9"/>
<path d="M34.1527 49.0159C34.1917 51.1003 34.7732 56.8007 39.9691 57.0777C46.3336 57.4177 50.1711 57.1023 52.2365 54.8427C53.7736 53.1609 55.2416 50.494 55.2916 44.8223C55.2823 42.9785 55.1291 40.8332 54.7866 38.3141C54.5869 36.8428 54.4092 35.5066 54.2506 34.2875C52.9776 26.7072 51.7995 25.3037 51.7995 25.3037L43.8557 22.8984L36.3486 24.21L34.2636 30.1191L34.1627 30.8805V31.0624C34.1627 31.0624 34.5452 30.0788 36.1306 30.1336C37.7161 30.1881 37.5516 29.4408 39.4099 27.3819C41.2689 25.3237 42.1796 27.9286 43.648 29.1493C45.1164 30.37 47.1898 28.7484 49.5945 28.6755C52.0001 28.6023 51.5257 31.4814 51.0709 32.2651C50.6149 33.0484 50.196 34.1598 51.6544 34.6884C53.1115 35.2164 53.621 35.4531 53.8042 39.0239C53.9858 42.5951 53.0205 45.1281 51.1799 46.3298C49.34 47.5327 45.4592 47.2592 42.7624 45.2006C40.0659 43.1417 37.141 45.119 35.7301 45.7289C34.9847 46.0505 34.2617 45.6338 34.163 45.5728V48.2593V48.735C34.1627 48.7357 34.1562 48.8392 34.1527 49.0159Z" fill="#E5A0B1"/>
<path d="M39.6603 35.0293C39.3713 37.3217 39.0272 39.9102 39.331 42.2048C39.4426 43.0479 39.9402 43.7 41.0784 43.4626C41.3693 43.4017 41.2454 43.0537 40.9549 43.1011C39.1665 43.3936 39.7819 39.6867 39.799 39.0358C39.8354 37.7003 39.8999 36.3654 39.8854 35.0293C39.8838 34.9103 39.6742 34.9148 39.6603 35.0293Z" fill="#EAAABA"/>
<path d="M43.3921 41.0484C43.9059 41.0484 44.3225 40.6318 44.3225 40.1179C44.3225 39.6041 43.9059 39.1875 43.3921 39.1875C42.8782 39.1875 42.4616 39.6041 42.4616 40.1179C42.4616 40.6318 42.8782 41.0484 43.3921 41.0484Z" fill="#1B1E28"/>
<path d="M36.3275 41.0484C36.8414 41.0484 37.2579 40.6318 37.2579 40.1179C37.2579 39.6041 36.8414 39.1875 36.3275 39.1875C35.8136 39.1875 35.397 39.6041 35.397 40.1179C35.397 40.6318 35.8136 41.0484 36.3275 41.0484Z" fill="#1B1E28"/>
<path d="M34.6136 36.8763C35.1596 36.6567 35.6121 36.348 36.2161 36.2742C36.8837 36.1906 37.4188 36.3845 38.0367 36.5941C38.2931 36.6805 38.3937 36.3274 38.208 36.1887C37.2198 35.4511 35.1612 35.5708 34.4381 36.6476C34.3659 36.7541 34.4875 36.9276 34.6136 36.8763Z" fill="#1B1E28"/>
<path d="M42.5813 36.5874C43.1544 36.3652 43.6062 36.1172 44.248 36.1466C44.8898 36.1766 45.4126 36.4417 46.0041 36.651C46.2618 36.7426 46.3575 36.3852 46.1747 36.2456C45.2407 35.5322 43.165 35.2477 42.4052 36.3588C42.331 36.4655 42.4552 36.6361 42.5813 36.5874Z" fill="#1B1E28"/>
<path d="M48.1856 41.8953C48.5155 42.7067 47.8889 43.7275 46.7852 44.1761C45.6816 44.6253 44.5203 44.3309 44.1906 43.5198C43.8607 42.7099 44.488 41.6889 45.5916 41.2396C46.6946 40.792 47.8566 41.0848 48.1856 41.8953Z" fill="#EAAABA"/>
<path d="M35.6399 41.4183C35.1358 41.1922 34.615 41.1235 34.1609 41.1909V44.2957C34.2112 44.3222 34.2622 44.348 34.3154 44.3718C35.4245 44.8695 36.6213 44.6124 36.9867 43.7962C37.3525 42.9815 36.749 41.9172 35.6399 41.4183Z" fill="#EAAABA"/>
<path d="M38.9072 38.5736C39.0988 40.5616 38.0084 42.4893 36.0008 43.0185C33.7374 43.6151 31.435 42.0603 31.0854 39.7737C30.7577 37.6239 32.2484 35.6104 34.395 35.2818C36.621 34.9425 38.4712 36.4689 38.9108 38.603C38.9398 38.7414 39.1501 38.6823 39.1211 38.5453C38.6631 36.3212 36.6839 34.6768 34.3476 35.0457C32.0952 35.4018 30.5165 37.5487 30.847 39.805C31.177 42.0571 33.3504 43.6513 35.5941 43.322C37.9336 42.9791 39.3439 40.8412 39.1259 38.573C39.1124 38.4353 38.894 38.4343 38.9072 38.5736Z" fill="#1B1E28"/>
<path d="M48.9323 39.2799C48.8165 41.4291 47.2046 43.2471 44.9651 43.2471C42.8146 43.2471 40.9973 41.4291 40.9973 39.2799C40.9973 37.2775 42.5656 35.5627 44.541 35.3569C46.9363 35.1089 48.8072 36.9414 48.9323 39.2799C48.9397 39.4196 49.1584 39.4205 49.151 39.2799C49.0281 37.0059 47.3388 35.0941 44.9651 35.0941C42.6937 35.0941 40.768 37.0007 40.7789 39.2799C40.7896 41.4782 42.544 43.3378 44.7429 43.4529C47.2021 43.5822 49.0236 41.641 49.151 39.2799C49.1587 39.139 48.9401 39.139 48.9323 39.2799Z" fill="#1B1E28"/>
<path d="M38.9373 39.0392C39.5375 39.1456 40.2576 39.1511 40.8617 39.0663C40.9462 39.0547 40.9462 38.9086 40.8617 38.8967C40.2576 38.8131 39.5388 38.8176 38.9373 38.9241C38.8792 38.9337 38.8792 39.0286 38.9373 39.0392Z" fill="#1B1E28"/>
<path d="M48.8651 39.1129C51.1763 39.2384 53.5196 39.1252 55.8343 39.1042C56.0152 39.1026 56.0159 38.8204 55.8343 38.8217C53.5193 38.8404 51.1743 38.7659 48.8651 38.9307C48.7487 38.9391 48.7481 39.1065 48.8651 39.1129Z" fill="#1B1E28"/>
<path d="M63.3695 41.2076C61.6418 36.8041 55.0239 39.8008 55.0239 39.8008L54.4867 44.108L57.7482 42.8628C57.8652 43.155 60.9059 43.2133 60.9059 43.2133L63.3695 41.2076Z" fill="#FAB9C9"/>
<path d="M57.5929 40.0122C59.4071 39.7345 61.1589 41.3238 60.9529 43.1776C60.9212 43.4692 60.4604 43.4724 60.4917 43.1776C60.661 41.6538 59.2619 40.2199 57.7152 40.4563C57.4249 40.5011 57.3001 40.0573 57.5929 40.0122Z" fill="#E6A0B1"/>
<path d="M60.1039 41.3654C59.3437 41.6976 58.7748 42.311 58.5265 43.1063C58.4394 43.3895 57.9943 43.2685 58.083 42.9841C58.3627 42.083 59.0035 41.3463 59.8714 40.9674C60.1413 40.85 60.3761 41.2467 60.1039 41.3654Z" fill="#E6A0B1"/>
<path d="M36.8139 15.4448C34.1525 17.2438 33.6078 20.6646 34.8365 23.505C34.8762 23.5972 35.0104 23.5172 34.9714 23.4263C33.7784 20.6701 34.3031 17.3295 36.8926 15.5793C36.9758 15.5232 36.8971 15.3877 36.8139 15.4448Z" fill="white"/>
<path d="M32.1831 34.6557C32.406 35.1056 32.6101 35.5603 32.8849 35.9815C32.9398 36.0654 33.0752 35.9873 33.0197 35.9028C32.7443 35.4813 32.5405 35.0265 32.318 34.5773C32.2734 34.4873 32.1386 34.5663 32.1831 34.6557Z" fill="white"/>
<path d="M51.8767 29.6779C51.8767 29.8515 51.8767 30.0243 51.8767 30.1978C51.8767 30.2981 52.0328 30.2981 52.0328 30.1978C52.0328 30.0243 52.0328 29.8515 52.0328 29.6779C52.0328 29.5776 51.8767 29.5776 51.8767 29.6779Z" fill="white"/>
<path d="M51.6761 31.9261C51.6291 31.99 51.6194 32.0703 51.5723 32.1341C51.5123 32.2151 51.6478 32.2925 51.7071 32.2128C51.7548 32.149 51.7645 32.0687 51.8109 32.0048C51.8706 31.9239 51.7352 31.8458 51.6761 31.9261Z" fill="white"/>
<path d="M60.7089 31.6017C60.5251 33.3532 60.5602 34.7552 61.2317 36.4048C61.2694 36.4967 61.42 36.4571 61.3823 36.3639C60.7221 34.7413 60.6844 33.3184 60.865 31.6017C60.876 31.5014 60.7192 31.5023 60.7089 31.6017Z" fill="white"/>
<path d="M39.969 57.0778C46.3334 57.4177 50.1709 57.1023 52.2363 54.8428C54.301 52.5836 56.2445 48.551 54.7861 37.8381C53.329 27.1246 53.0313 23.3096 53.0313 23.3096L47.4944 20.3071L35.3996 21.0482L34.1625 30.4042V30.5861C34.1625 30.5861 34.545 29.6028 36.1304 29.657C37.7159 29.7118 37.5514 28.9645 39.4097 26.906C41.2687 24.8477 42.1794 27.4526 43.6478 28.6733C45.1162 29.8937 47.1896 28.2724 49.5943 28.1996C51.9999 28.1263 51.5255 31.0051 51.0707 31.7888C50.6147 32.5725 50.1958 33.6835 51.6542 34.2121C53.1113 34.7404 53.6208 34.9768 53.804 38.5476C53.9856 42.1188 53.0203 44.6518 51.1798 45.8538C49.3398 47.0564 45.4591 46.7833 42.7622 44.7244C40.0657 42.6658 37.1409 44.6431 35.7299 45.253C34.9845 45.5742 34.2615 45.1575 34.1628 45.0969V48.2594C34.1625 48.2597 33.6045 56.7379 39.969 57.0778Z" fill="#1B1E28"/>
<path d="M33.4172 25.1035C33.474 26.7405 32.4755 28.0696 31.8579 29.5177C31.4212 30.541 31.359 31.6505 31.3899 32.7451C31.3925 32.8454 31.5486 32.846 31.5457 32.7451C31.4986 31.0796 31.8792 29.7786 32.6061 28.2941C33.1302 27.2246 33.6153 26.3223 33.573 25.1035C33.5698 25.0032 33.4137 25.0029 33.4172 25.1035Z" fill="white"/>
<path d="M51.8298 17.5889C53.6672 17.8698 55.5451 17.4819 57.3548 17.9956C60.8746 18.9938 60.0545 24.2201 58.9573 26.676C58.9164 26.7669 59.0512 26.846 59.0915 26.7544C60.1874 24.3023 60.6292 21.1188 58.9157 18.8335C57.4064 16.821 53.9677 17.7589 51.8714 17.4386C51.7734 17.4235 51.7305 17.5738 51.8298 17.5889Z" fill="white"/>
<path d="M42.9324 25.8312C43.0897 30.5373 48.9894 25.3091 51.0135 27.6541C51.079 27.7299 51.1893 27.6196 51.1238 27.5435C49.0565 25.1478 43.2362 30.2487 43.0888 25.8309C43.0855 25.7309 42.9294 25.7306 42.9324 25.8312Z" fill="white"/>
<path d="M39.7367 57.191C42.3484 57.2081 45.0007 57.5248 47.6004 57.1443C50.3998 56.7344 52.3039 55.6459 53.762 53.2142C53.8136 53.1277 53.6788 53.0497 53.6272 53.1358C52.0272 55.8026 49.8048 56.7863 46.7771 57.0775C44.4376 57.3023 42.0787 57.0501 39.7367 57.0349C39.6367 57.0343 39.6367 57.1904 39.7367 57.191Z" fill="white"/>
<path d="M39.3619 47.0697C40.0169 48.531 42.7218 47.9427 42.7244 46.347C42.7244 46.1767 42.4906 46.1135 42.4044 46.2605C42.0997 46.7801 41.9 47.2684 41.2492 47.4361C40.5677 47.6122 40.0701 47.2516 39.5467 46.8843C39.4235 46.7982 39.3129 46.9601 39.3619 47.0697Z" fill="white"/>
<path d="M38.5414 68.7211C44.2112 75.3606 50.3956 74.4943 56.9165 68.7211L56.9171 95.9994H38.5417V68.7211H38.5414Z" fill="#E3EEF1"/>
<path d="M39.0388 61.8306L26.1539 66.2528C32.09 76.4387 35.2309 86.3246 35.2038 95.8722H40.9629C43.9136 85.5709 42.9044 74.1169 39.0388 61.8306Z" fill="#186BE7"/>
<path d="M58.0678 61.8306L70.9531 66.2528C65.0163 76.4387 61.8757 86.3246 61.9025 95.8722H56.1434C53.1937 85.5709 54.2026 74.1169 58.0678 61.8306Z" fill="#186BE7"/>
</g>
</svg>
