<svg width="92" height="92" viewBox="0 0 92 92" fill="none" xmlns="http://www.w3.org/2000/svg">
<g filter="url(#filter0_d_141_608)">
<circle cx="46" cy="44" r="35" fill="#6E7E79"/>
<path d="M58.5 44C58.5 44.3978 58.342 44.7794 58.0607 45.0607C57.7794 45.342 57.3978 45.5 57 45.5H47.5V55C47.5 55.3978 47.342 55.7794 47.0607 56.0607C46.7794 56.342 46.3978 56.5 46 56.5C45.6022 56.5 45.2206 56.342 44.9393 56.0607C44.658 55.7794 44.5 55.3978 44.5 55V45.5H35C34.6022 45.5 34.2206 45.342 33.9393 45.0607C33.658 44.7794 33.5 44.3978 33.5 44C33.5 43.6022 33.658 43.2206 33.9393 42.9393C34.2206 42.658 34.6022 42.5 35 42.5H44.5V33C44.5 32.6022 44.658 32.2206 44.9393 31.9393C45.2206 31.658 45.6022 31.5 46 31.5C46.3978 31.5 46.7794 31.658 47.0607 31.9393C47.342 32.2206 47.5 32.6022 47.5 33V42.5H57C57.3978 42.5 57.7794 42.658 58.0607 42.9393C58.342 43.2206 58.5 43.6022 58.5 44Z" fill="white"/>
</g>
<defs>
<filter id="filter0_d_141_608" x="0" y="0" width="92" height="92" filterUnits="userSpaceOnUse" color-interpolation-filters="sRGB">
<feFlood flood-opacity="0" result="BackgroundImageFix"/>
<feColorMatrix in="SourceAlpha" type="matrix" values="0 0 0 0 0 0 0 0 0 0 0 0 0 0 0 0 0 0 127 0" result="hardAlpha"/>
<feOffset dy="2"/>
<feGaussianBlur stdDeviation="5.5"/>
<feComposite in2="hardAlpha" operator="out"/>
<feColorMatrix type="matrix" values="0 0 0 0 0 0 0 0 0 0 0 0 0 0 0 0 0 0 0.25 0"/>
<feBlend mode="normal" in2="BackgroundImageFix" result="effect1_dropShadow_141_608"/>
<feBlend mode="normal" in="SourceGraphic" in2="effect1_dropShadow_141_608" result="shape"/>
</filter>
</defs>
</svg>
