<svg width="20" height="19" viewBox="0 0 20 19" fill="none" xmlns="http://www.w3.org/2000/svg">
<path d="M15.9168 11.8185C15.6578 12.0694 15.5388 12.4324 15.5978 12.7883L16.4867 17.7077C16.5617 18.1246 16.3857 18.5466 16.0368 18.7875C15.6948 19.0375 15.2399 19.0675 14.8669 18.8675L10.4385 16.5578C10.2845 16.4758 10.1136 16.4319 9.93858 16.4269H9.66761C9.57362 16.4409 9.48164 16.4708 9.39765 16.5168L4.96823 18.8375C4.74926 18.9475 4.50129 18.9865 4.25832 18.9475C3.6664 18.8355 3.27145 18.2716 3.36844 17.6767L4.25832 12.7573C4.31731 12.3984 4.19833 12.0334 3.93936 11.7785L0.328833 8.27892C0.0268723 7.98596 -0.078114 7.54601 0.059868 7.14907C0.19385 6.75312 0.535806 6.46416 0.948752 6.39916L5.9181 5.67826C6.29605 5.63926 6.62801 5.40929 6.79799 5.06934L8.9877 0.579924C9.03969 0.479937 9.10669 0.387949 9.18768 0.30996L9.27766 0.239969C9.32466 0.187975 9.37865 0.144981 9.43864 0.109986L9.54763 0.0699909L9.71761 0H10.1386C10.5145 0.0389949 10.8455 0.263966 11.0184 0.599922L13.2371 5.06934C13.3971 5.3963 13.7081 5.62327 14.067 5.67826L19.0364 6.39916C19.4563 6.45916 19.8073 6.74912 19.9463 7.14907C20.0773 7.55001 19.9643 7.98996 19.6563 8.27892L15.9168 11.8185Z" fill="#EE684A"/>
</svg>
