<svg width="26" height="26" viewBox="0 0 26 26" fill="none" xmlns="http://www.w3.org/2000/svg">
<path d="M13 0C5.83157 0 0 5.83157 0 13C0 20.1684 5.83157 26 13 26C20.1684 26 26 20.1684 26 13C26 5.83157 20.1684 0 13 0ZM15.9326 17.6508C16.3561 18.0743 16.3561 18.759 15.9326 19.1826C15.7213 19.3938 15.444 19.5 15.1666 19.5C14.8893 19.5 14.6119 19.3938 14.4007 19.1826L8.98407 13.7659C8.5605 13.3424 8.5605 12.6577 8.98407 12.2341L14.4008 6.81743C14.8243 6.39387 15.509 6.39387 15.9326 6.81743C16.3561 7.241 16.3561 7.92568 15.9326 8.34925L11.2818 13L15.9326 17.6508Z" fill="white" fill-opacity="0.6"/>
</svg>
